#N canvas 396 101 1017 554 10;
#X text 32 11 Fixture 1;
#X text 126 10 Fixture 2;
#X text 214 12 Fixture 3;
#X text 306 13 Fixture 4;
#X text 395 15 Fixture 5;
#X text 491 16 Fixture 6;
#X text -14 74 RED;
#X text -21 173 GREEN;
#X text -15 275 BLUE;
#X obj 29 75 unpack 0 0 0 0 0 0 0 0 0 0 0 0 0 0 0 0 0 0;
#X obj 30 263 ctlout 1 1;
#X obj 44 300 ctlout 2 1;
#X obj 59 338 ctlout 3 1;
#X obj 80 375 ctlout 4 1;
#X obj 94 412 ctlout 5 1;
#X obj 109 450 ctlout 6 1;
#X obj 118 263 ctlout 7 1;
#X obj 132 300 ctlout 8 1;
#X obj 147 338 ctlout 9 1;
#X obj 168 375 ctlout 10 1;
#X obj 182 412 ctlout 11 1;
#X obj 197 450 ctlout 12 1;
#X obj 205 261 ctlout 13 1;
#X obj 219 298 ctlout 14 1;
#X obj 234 336 ctlout 15 1;
#X obj 255 373 ctlout 16 1;
#X obj 269 410 ctlout 17 1;
#X obj 284 448 ctlout 18 1;
#X obj 30 49 dumpOSC 2000;
#X obj 30 108 change;
#X obj 44 129 change;
#X obj 59 151 change;
#X obj 72 174 change;
#X obj 86 195 change;
#X obj 101 217 change;
#X obj 117 104 change;
#X obj 131 125 change;
#X obj 146 147 change;
#X obj 159 170 change;
#X obj 173 191 change;
#X obj 188 213 change;
#X obj 206 106 change;
#X obj 220 127 change;
#X obj 235 149 change;
#X obj 248 172 change;
#X obj 262 193 change;
#X obj 277 215 change;
#X obj 335 97 unpack 0 0 0 0 0 0 0 0 0 0 0 0 0 0 0 0 0 0;
#X obj 336 130 change;
#X obj 350 151 change;
#X obj 365 173 change;
#X obj 378 196 change;
#X obj 392 217 change;
#X obj 407 239 change;
#X obj 423 126 change;
#X obj 437 147 change;
#X obj 452 169 change;
#X obj 465 192 change;
#X obj 479 213 change;
#X obj 494 235 change;
#X obj 512 128 change;
#X obj 526 149 change;
#X obj 541 171 change;
#X obj 554 194 change;
#X obj 568 215 change;
#X obj 583 237 change;
#X obj 336 71 dumpOSC 2001;
#X obj 336 285 ctlout 19 1;
#X obj 350 322 ctlout 20 1;
#X obj 365 360 ctlout 21 1;
#X obj 386 397 ctlout 22 1;
#X obj 400 434 ctlout 23 1;
#X obj 415 472 ctlout 24 1;
#X obj 424 285 ctlout 25 1;
#X obj 438 322 ctlout 26 1;
#X obj 453 360 ctlout 27 1;
#X obj 474 397 ctlout 28 1;
#X obj 488 434 ctlout 29 1;
#X obj 503 472 ctlout 30 1;
#X obj 511 283 ctlout 31 1;
#X obj 525 320 ctlout 32 1;
#X obj 540 358 ctlout 33 1;
#X obj 561 395 ctlout 34 1;
#X obj 575 432 ctlout 35 1;
#X obj 590 470 ctlout 36 1;
#X obj 624 99 unpack 0 0 0 0 0 0 0 0 0 0 0 0 0 0 0 0 0 0;
#X obj 625 132 change;
#X obj 639 153 change;
#X obj 654 175 change;
#X obj 667 198 change;
#X obj 681 219 change;
#X obj 696 241 change;
#X obj 712 128 change;
#X obj 726 149 change;
#X obj 741 171 change;
#X obj 754 194 change;
#X obj 768 215 change;
#X obj 783 237 change;
#X obj 801 130 change;
#X obj 815 151 change;
#X obj 830 173 change;
#X obj 843 196 change;
#X obj 857 217 change;
#X obj 872 239 change;
#X obj 625 73 dumpOSC 2002;
#X obj 625 287 ctlout 37 1;
#X obj 639 324 ctlout 38 1;
#X obj 654 362 ctlout 39 1;
#X obj 675 399 ctlout 40 1;
#X obj 689 436 ctlout 41 1;
#X obj 704 474 ctlout 42 1;
#X obj 713 287 ctlout 43 1;
#X obj 727 324 ctlout 44 1;
#X obj 742 362 ctlout 45 1;
#X obj 763 399 ctlout 46 1;
#X obj 777 436 ctlout 47 1;
#X obj 792 474 ctlout 48 1;
#X obj 800 285 ctlout 49 1;
#X obj 814 322 ctlout 50 1;
#X obj 829 360 ctlout 51 1;
#X obj 850 397 ctlout 52 1;
#X obj 864 434 ctlout 53 1;
#X obj 879 472 ctlout 54 1;
#X connect 9 0 29 0;
#X connect 9 1 30 0;
#X connect 9 2 31 0;
#X connect 9 3 32 0;
#X connect 9 4 33 0;
#X connect 9 5 34 0;
#X connect 9 6 35 0;
#X connect 9 7 36 0;
#X connect 9 8 37 0;
#X connect 9 9 38 0;
#X connect 9 10 39 0;
#X connect 9 11 40 0;
#X connect 9 12 41 0;
#X connect 9 13 42 0;
#X connect 9 14 43 0;
#X connect 9 15 44 0;
#X connect 9 16 45 0;
#X connect 9 17 46 0;
#X connect 28 0 9 0;
#X connect 29 0 10 0;
#X connect 30 0 11 0;
#X connect 31 0 12 0;
#X connect 32 0 13 0;
#X connect 33 0 14 0;
#X connect 34 0 15 0;
#X connect 35 0 16 0;
#X connect 36 0 17 0;
#X connect 37 0 18 0;
#X connect 38 0 19 0;
#X connect 39 0 20 0;
#X connect 40 0 21 0;
#X connect 41 0 22 0;
#X connect 42 0 23 0;
#X connect 43 0 24 0;
#X connect 44 0 25 0;
#X connect 45 0 26 0;
#X connect 46 0 27 0;
#X connect 47 0 48 0;
#X connect 47 1 49 0;
#X connect 47 2 50 0;
#X connect 47 3 51 0;
#X connect 47 4 52 0;
#X connect 47 5 53 0;
#X connect 47 6 54 0;
#X connect 47 7 55 0;
#X connect 47 8 56 0;
#X connect 47 9 57 0;
#X connect 47 10 58 0;
#X connect 47 11 59 0;
#X connect 47 12 60 0;
#X connect 47 13 61 0;
#X connect 47 14 62 0;
#X connect 47 15 63 0;
#X connect 47 16 64 0;
#X connect 47 17 65 0;
#X connect 48 0 67 0;
#X connect 49 0 68 0;
#X connect 50 0 69 0;
#X connect 51 0 70 0;
#X connect 52 0 71 0;
#X connect 53 0 72 0;
#X connect 54 0 73 0;
#X connect 55 0 74 0;
#X connect 56 0 75 0;
#X connect 57 0 76 0;
#X connect 58 0 77 0;
#X connect 59 0 78 0;
#X connect 60 0 79 0;
#X connect 61 0 80 0;
#X connect 62 0 81 0;
#X connect 63 0 82 0;
#X connect 64 0 83 0;
#X connect 65 0 84 0;
#X connect 66 0 47 0;
#X connect 85 0 86 0;
#X connect 85 1 87 0;
#X connect 85 2 88 0;
#X connect 85 3 89 0;
#X connect 85 4 90 0;
#X connect 85 5 91 0;
#X connect 85 6 92 0;
#X connect 85 7 93 0;
#X connect 85 8 94 0;
#X connect 85 9 95 0;
#X connect 85 10 96 0;
#X connect 85 11 97 0;
#X connect 85 12 98 0;
#X connect 85 13 99 0;
#X connect 85 14 100 0;
#X connect 85 15 101 0;
#X connect 85 16 102 0;
#X connect 85 17 103 0;
#X connect 86 0 105 0;
#X connect 87 0 106 0;
#X connect 88 0 107 0;
#X connect 89 0 108 0;
#X connect 90 0 109 0;
#X connect 91 0 110 0;
#X connect 92 0 111 0;
#X connect 93 0 112 0;
#X connect 94 0 113 0;
#X connect 95 0 114 0;
#X connect 96 0 115 0;
#X connect 97 0 116 0;
#X connect 98 0 117 0;
#X connect 99 0 118 0;
#X connect 100 0 119 0;
#X connect 101 0 120 0;
#X connect 102 0 121 0;
#X connect 103 0 122 0;
#X connect 104 0 85 0;
