#N canvas 638 52 979 883 10;
#X text 32 11 Fixture 1;
#X text 126 10 Fixture 2;
#X text 214 12 Fixture 3;
#X text 306 13 Fixture 4;
#X text 395 15 Fixture 5;
#X text 491 16 Fixture 6;
#X text -14 74 RED;
#X text -21 173 GREEN;
#X text -15 275 BLUE;
#X obj 29 75 unpack 0 0 0 0 0 0 0 0 0 0 0 0 0 0 0 0 0 0;
#X obj 30 263 ctlout 1 1;
#X obj 44 300 ctlout 2 1;
#X obj 59 338 ctlout 3 1;
#X obj 80 375 ctlout 4 1;
#X obj 94 412 ctlout 5 1;
#X obj 109 450 ctlout 6 1;
#X obj 118 263 ctlout 7 1;
#X obj 132 300 ctlout 8 1;
#X obj 147 338 ctlout 9 1;
#X obj 168 375 ctlout 10 1;
#X obj 182 412 ctlout 11 1;
#X obj 197 450 ctlout 12 1;
#X obj 205 261 ctlout 13 1;
#X obj 219 298 ctlout 14 1;
#X obj 234 336 ctlout 15 1;
#X obj 255 373 ctlout 16 1;
#X obj 269 410 ctlout 17 1;
#X obj 284 448 ctlout 18 1;
#X obj 30 49 dumpOSC 2000;
#X obj 30 108 change;
#X obj 44 129 change;
#X obj 59 151 change;
#X obj 72 174 change;
#X obj 86 195 change;
#X obj 101 217 change;
#X obj 117 104 change;
#X obj 131 125 change;
#X obj 146 147 change;
#X obj 159 170 change;
#X obj 173 191 change;
#X obj 188 213 change;
#X obj 206 106 change;
#X obj 220 127 change;
#X obj 235 149 change;
#X obj 248 172 change;
#X obj 262 193 change;
#X obj 277 215 change;
#X connect 9 0 29 0;
#X connect 9 1 30 0;
#X connect 9 2 31 0;
#X connect 9 3 32 0;
#X connect 9 4 33 0;
#X connect 9 5 34 0;
#X connect 9 6 35 0;
#X connect 9 7 36 0;
#X connect 9 8 37 0;
#X connect 9 9 38 0;
#X connect 9 10 39 0;
#X connect 9 11 40 0;
#X connect 9 12 41 0;
#X connect 9 13 42 0;
#X connect 9 14 43 0;
#X connect 9 15 44 0;
#X connect 9 16 45 0;
#X connect 9 17 46 0;
#X connect 28 0 9 0;
#X connect 29 0 10 0;
#X connect 30 0 11 0;
#X connect 31 0 12 0;
#X connect 32 0 13 0;
#X connect 33 0 14 0;
#X connect 34 0 15 0;
#X connect 35 0 16 0;
#X connect 36 0 17 0;
#X connect 37 0 18 0;
#X connect 38 0 19 0;
#X connect 39 0 20 0;
#X connect 40 0 21 0;
#X connect 41 0 22 0;
#X connect 42 0 23 0;
#X connect 43 0 24 0;
#X connect 44 0 25 0;
#X connect 45 0 26 0;
#X connect 46 0 27 0;
