#N canvas 568 96 392 115 10;
#X obj 5 39 unpack 0 0;
#X obj 101 36 unpack 0 0;
#X obj 186 34 unpack 0 0;
#X obj 277 34 unpack 0 0;
#X obj 101 8 dumpOSC 3000;
#X obj 186 8 dumpOSC 4000;
#X obj 5 8 dumpOSC 2000;
#X obj 277 8 dumpOSC 5000;
#X obj 5 68 ctlout 1 1;
#X obj 101 65 ctlout 2 1;
#X obj 185 62 ctlout 3 1;
#X obj 274 62 ctlout 4 1;
#X connect 0 1 8 0;
#X connect 1 1 9 0;
#X connect 2 1 10 0;
#X connect 3 1 11 0;
#X connect 4 0 1 0;
#X connect 5 0 2 0;
#X connect 6 0 0 0;
#X connect 7 0 3 0;
