#N canvas 567 95 893 576 10;
#X obj 24 71 unpack 0 0;
#X obj 120 68 unpack 0 0;
#X obj 205 66 unpack 0 0;
#X obj 296 66 unpack 0 0;
#X obj 120 40 dumpOSC 3000;
#X obj 205 40 dumpOSC 4000;
#X obj 24 40 dumpOSC 2000;
#X obj 296 40 dumpOSC 5000;
#X obj 24 100 ctlout 1 1;
#X obj 385 67 unpack 0 0;
#X obj 482 70 unpack 0 0;
#X obj 385 41 dumpOSC 6000;
#X obj 483 44 dumpOSC 7000;
#X obj 25 173 unpack 0 0;
#X obj 121 170 unpack 0 0;
#X obj 206 168 unpack 0 0;
#X obj 297 168 unpack 0 0;
#X obj 386 169 unpack 0 0;
#X obj 483 172 unpack 0 0;
#X obj 26 274 unpack 0 0;
#X obj 122 271 unpack 0 0;
#X obj 207 269 unpack 0 0;
#X obj 298 269 unpack 0 0;
#X obj 387 270 unpack 0 0;
#X obj 484 273 unpack 0 0;
#X obj 25 142 dumpOSC 2001;
#X obj 26 243 dumpOSC 2002;
#X obj 121 142 dumpOSC 3001;
#X obj 122 243 dumpOSC 3002;
#X obj 206 142 dumpOSC 4001;
#X obj 207 243 dumpOSC 4002;
#X obj 298 141 dumpOSC 5001;
#X obj 298 243 dumpOSC 5002;
#X obj 386 143 dumpOSC 6001;
#X obj 387 244 dumpOSC 6002;
#X obj 484 146 dumpOSC 7001;
#X obj 485 247 dumpOSC 7002;
#X text 32 11 Fixture 1;
#X text 126 10 Fixture 2;
#X text 214 12 Fixture 3;
#X text 306 13 Fixture 4;
#X text 395 15 Fixture 5;
#X text 491 16 Fixture 6;
#X text -14 74 RED;
#X text -21 173 GREEN;
#X text -15 275 BLUE;
#X obj 25 202 ctlout 2 1;
#X obj 26 303 ctlout 3 1;
#X obj 120 97 ctlout 4 1;
#X obj 121 199 ctlout 5 1;
#X obj 122 300 ctlout 6 1;
#X obj 204 94 ctlout 7 1;
#X obj 205 196 ctlout 8 1;
#X obj 206 297 ctlout 9 1;
#X obj 293 94 ctlout 10 1;
#X obj 294 196 ctlout 11 1;
#X obj 295 297 ctlout 12 1;
#X obj 382 95 ctlout 13 1;
#X obj 383 197 ctlout 14 1;
#X obj 384 298 ctlout 15 1;
#X obj 479 98 ctlout 16 1;
#X obj 480 200 ctlout 17 1;
#X obj 481 301 ctlout 18 1;
#X connect 0 1 8 0;
#X connect 1 1 48 0;
#X connect 2 1 51 0;
#X connect 3 1 54 0;
#X connect 4 0 1 0;
#X connect 5 0 2 0;
#X connect 6 0 0 0;
#X connect 7 0 3 0;
#X connect 9 1 57 0;
#X connect 10 1 60 0;
#X connect 11 0 9 0;
#X connect 12 0 10 0;
#X connect 13 1 46 0;
#X connect 14 1 49 0;
#X connect 15 1 52 0;
#X connect 16 1 55 0;
#X connect 17 1 58 0;
#X connect 18 1 61 0;
#X connect 19 1 47 0;
#X connect 20 1 50 0;
#X connect 21 1 53 0;
#X connect 22 1 56 0;
#X connect 23 1 59 0;
#X connect 24 1 62 0;
#X connect 25 0 13 0;
#X connect 26 0 19 0;
#X connect 27 0 14 0;
#X connect 28 0 20 0;
#X connect 29 0 15 0;
#X connect 30 0 21 0;
#X connect 31 0 16 0;
#X connect 32 0 22 0;
#X connect 33 0 17 0;
#X connect 34 0 23 0;
#X connect 35 0 18 0;
#X connect 36 0 24 0;
