#N canvas 497 227 804 276 10;
#X text 635 14 TouchOSC;
#X text 636 29 http://hexler.net/touchosc;
#X obj 228 218 sendOSC;
#X text 636 44 basic.pd v1.0;
#X obj 32 108 print osc;
#X text 381 185 Use osc address of control. OSC messages are constructed
like this: /pagenumber/controlname;
#X text 228 108 Sending values to the iPhone on port 9000 Replace 10.10.10.10
with the ip-address of the iPhone;
#X text 29 19 Receiving values on port 8000 from the iPhone. Send values
from the iPhone to see the osc adress of the control for sending values
;
#X msg 228 152 connect 10.0.1.4 9000;
#X obj 32 75 dumpOSC 8000;
#X msg 265 184 send /1/f1 1;
#X connect 8 0 2 0;
#X connect 9 0 4 0;
#X connect 10 0 2 0;
#X coords 0 0 1 1 85 60 0;
